# xmcd
#
# Track frame offsets:
#	150
#	13499
#	26257
#	38836
#	52933
#	68618
#	92226
#	103970
#	115938
#	136832
#	157066
#	171778
#	181358
#	199357
#	218570
#	235565
#	250118
#	265218
#
# Disc length: 3831
#
# Revision: 1
# Processed by: cddbd v1.5.1PL0 Copyright (c) Steve Scherf et al.
# Submitted via: CDex 1.51
# Normalized: r0:DSETVAR1,TDELIM( - )
#
DISCID=f60ef512
DTITLE=Various Artist - The Best Smooth Jazz... Ever! CD-2
DYEAR=2004
DGENRE=Jazz
TTITLE0=Chet Baker - My Funny Valentine
TTITLE1=Julie London - Cry Me A River
TTITLE2=Peggy Lee - Here's That Rainy Day
TTITLE3=Duke Ellington and Louis Armstrong - I'm Just A Lucky So and So
TTITLE4=Sarah Vaughan - Stormy Weather
TTITLE5=Miles Davis and Cannonball Adderley - Autumn Leaves
TTITLE6=Nina Simone - Work Song
TTITLE7=Nat King Cole - Nature Boy
TTITLE8=Donald Byrd - Just My Imagination
TTITLE9=Bobby Hutcherson - Theme From M.A.S.H.
TTITLE10=Bob Dorough - 3 Is The Magic Number
TTITLE11=Bobbie Gentry - Son Of A Preacher Man
TTITLE12=Shuggie Otis - Strawberry Letter 23
TTITLE13=Ronnie Jordan and Roy Ayers - Mystic Voyage
TTITLE14=Sjara Nelson - Down That Road
TTITLE15=Louis Armstrong - We Have All The Time In The World
TTITLE16=Bobby Womack - California Dreaming
TTITLE17=Buddy Rich - The Beat Goes On
EXTD=YEAR: 2004
EXTT0=
EXTT1=
EXTT2=
EXTT3=
EXTT4=
EXTT5=
EXTT6=
EXTT7=
EXTT8=
EXTT9=
EXTT10=
EXTT11=
EXTT12=
EXTT13=
EXTT14=
EXTT15=
EXTT16=
EXTT17=
PLAYORDER=
